/* XPM */ 
static const unsigned char * bitcoin32_xpm[] = {
"32 32 796 2",
"  	c None",
"! 	c black",
"# 	c #FFE18C",
"$ 	c #F9D37D",
"% 	c #F4D795",
"& 	c #F3DB8E",
"' 	c #F2DA86",
"( 	c #F3D77D",
") 	c #F5CF61",
"* 	c #FFD867",
"+ 	c #FFD377",
", 	c #F4D6A8",
"- 	c #D9CA9F",
". 	c #D6CF8C",
"0 	c #D0D17C",
"1 	c #D5C965",
"2 	c #DDC854",
"3 	c #DFC850",
"4 	c #D7C555",
"5 	c #D4C553",
"6 	c #DDC64F",
"7 	c #DEC24A",
"8 	c #EFCD53",
"9 	c #FDD059",
": 	c #FFCE6F",
"; 	c #F5DAB4",
"< 	c #CFC6A8",
"= 	c #C6C377",
"> 	c #D6C73E",
"? 	c #E9CC37",
"@ 	c #F7DF41",
"A 	c #FAE549",
"B 	c #FFE460",
"C 	c #FEE25D",
"D 	c #FCDD3B",
"E 	c #F9D942",
"F 	c #EAC641",
"G 	c #D6B52F",
"H 	c #CEB22B",
"I 	c #D6B939",
"J 	c #EFD564",
"K 	c #F6CC6B",
"L 	c #FFDB8F",
"M 	c #D8D8CB",
"N 	c #BEB76B",
"O 	c #D6C223",
"P 	c #FCE432",
"Q 	c #FFEA5F",
"R 	c #FFFFAE",
"S 	c #F9E37A",
"T 	c #ECC639",
"U 	c #F8EC8A",
"V 	c #EDDD75",
"W 	c #E8BD33",
"X 	c #FCD954",
"Y 	c #FAD958",
"Z 	c #FACB3A",
"[ 	c #FFCE34",
"] 	c #DCA71A",
"^ 	c #CEA725",
"_ 	c #DDDC9D",
"` 	c #F4D794",
"a 	c #FFE6A9",
"b 	c #C7CAAF",
"c 	c #C2B229",
"d 	c #FAE53A",
"e 	c #FFFF9E",
"f 	c #FADC6B",
"g 	c #EFCB40",
"h 	c #E6E08D",
"i 	c #E3C95B",
"j 	c #F9C11A",
"k 	c #E8BE32",
"l 	c #E1B026",
"m 	c #F6B924",
"n 	c #EDC138",
"o 	c #E2BA32",
"p 	c #EFB42B",
"q 	c #FDCC49",
"r 	c #FFE465",
"s 	c #EFBA30",
"t 	c #CE9204",
"u 	c #D4CDB4",
"v 	c #F4E3CF",
"w 	c #FFE19C",
"x 	c #C7C79C",
"y 	c #D1B315",
"z 	c #FFE22F",
"{ 	c #F5CF4F",
"| 	c #F0EEAA",
"} 	c #E9D97F",
"~ 	c #FDC012",
" !	c #EEB10C",
"!!	c #F1B72A",
"#!	c #FECC52",
"$!	c #FBCC4E",
"%!	c #FCCB4E",
"&!	c #FFCC4A",
"'!	c #F6BA33",
"(!	c #EFAE26",
")!	c #F7B120",
"*!	c #ECC551",
"+!	c #E0D080",
",!	c #ECAC31",
"-!	c #FEB213",
".!	c #D68400",
"0!	c #D5C8B4",
"1!	c #F1E2C4",
"2!	c #FFE38A",
"3!	c #CFCC97",
"4!	c #D2A90A",
"5!	c #FFF767",
"6!	c #F8E590",
"7!	c #F1C73E",
"8!	c #ECBB25",
"9!	c #E8AC12",
":!	c #FCC64B",
";!	c #FFE588",
"<!	c #FFF6AB",
"=!	c #FFF9A9",
">!	c #FFF48F",
"?!	c #FFF688",
"@!	c #FFEC81",
"A!	c #FFDF65",
"B!	c #FDCE4A",
"C!	c #F7B731",
"D!	c #EAA52B",
"E!	c #E39C1A",
"F!	c #ECA82F",
"G!	c #FDF7DC",
"H!	c #FDE198",
"I!	c #CE7400",
"J!	c #DDD4A5",
"K!	c #E7CA83",
"L!	c #E3E09B",
"M!	c #CAA31A",
"N!	c #FFCF21",
"O!	c #F6D56A",
"P!	c #EBE68E",
"Q!	c #E9B727",
"R!	c #FFB310",
"S!	c #FFDF89",
"T!	c #FFFFC4",
"U!	c #FFFDA4",
"V!	c #FEEE78",
"W!	c #FAE46D",
"X!	c #F7E486",
"Y!	c #E8CF5C",
"Z!	c #F7CB27",
"[!	c #FFD640",
"]!	c #FFD546",
"^!	c #FDD041",
"_!	c #F8BA30",
"`!	c #ED9C13",
"a!	c #E69F2D",
"b!	c #ECE7C9",
"c!	c #DEC189",
"d!	c #E78400",
"e!	c #CC7A03",
"f!	c #ECED8B",
"g!	c #F6E381",
"h!	c #CAB03F",
"i!	c #F9C42C",
"j!	c #FCCB4F",
"k!	c #F4BA32",
"l!	c #E7AA15",
"m!	c #F4AF21",
"n!	c #FFEFB1",
"o!	c #FFFFBC",
"p!	c #FDEC79",
"q!	c #F4E695",
"r!	c #F2E592",
"s!	c #F0E9A6",
"t!	c #F9FACF",
"u!	c #E9EAD2",
"v!	c #F2DA88",
"w!	c #FFC520",
"x!	c #FDC433",
"y!	c #FDC534",
"z!	c #FEC937",
"{!	c #F6B92E",
"|!	c #E19829",
"}!	c #D6840F",
"~!	c #DC8E15",
" #	c #EBB344",
"!#	c #DC8C27",
"##	c #D19314",
"$#	c #EBDA5D",
"%#	c #F8C042",
"&#	c #DDCC63",
"'#	c #DA9C0F",
"(#	c #FFDE5B",
")#	c #F7E66F",
"*#	c #ECB72B",
"+#	c #F9A814",
",#	c #FEEAA7",
"-#	c #FFFEA5",
".#	c #FCE054",
"0#	c #ECDF95",
"1#	c #F6F9D0",
"2#	c #FDFCC2",
"3#	c #FFFCC2",
"4#	c #FFF8B7",
"5#	c #FFFFC9",
"6#	c white",
"7#	c #F6CB62",
"8#	c #FAB70F",
"9#	c #F7B117",
":#	c #F8B21E",
";#	c #FABF31",
"<#	c #EEAD29",
"=#	c #DA8413",
">#	c #DF982C",
"?#	c #FFF363",
"@#	c #F2C23A",
"A#	c #C0650A",
"B#	c #E7BE38",
"C#	c #CCA039",
"D#	c #F5D85E",
"E#	c #D6B133",
"F#	c #F9B023",
"G#	c #F3B935",
"H#	c #DEB93B",
"I#	c #E2990F",
"J#	c #FBD47C",
"K#	c #FFFC9B",
"L#	c #FFE553",
"M#	c #E6C84A",
"N#	c #E3DEB2",
"O#	c #FFFFC3",
"P#	c #FFF7BB",
"Q#	c #FFF7C3",
"R#	c #FFF7C9",
"S#	c #FFF3BF",
"T#	c #FAFFF1",
"U#	c #E7C05E",
"V#	c #F5A200",
"W#	c #F0C35D",
"X#	c #E3B147",
"Y#	c #E29612",
"Z#	c #F1AB1E",
"[#	c #E19A27",
"]#	c #D38926",
"^#	c #DEA326",
"_#	c #D49120",
"`#	c #D07A1E",
"a#	c #DA911A",
"b#	c #E4B942",
"c#	c #E4C448",
"d#	c #DB9E1C",
"e#	c #FFC039",
"f#	c #F1AF2E",
"g#	c #EC9B10",
"h#	c #ECAC43",
"i#	c #FFF192",
"j#	c #FFDC47",
"k#	c #FFD137",
"l#	c #F6CA47",
"m#	c #FAFCE9",
"n#	c #FFFECA",
"o#	c #FFF5C3",
"p#	c #FFF4C8",
"q#	c #FFF1C4",
"r#	c #FFF5BE",
"s#	c #F2E9B8",
"t#	c #E0A025",
"u#	c #F1D484",
"v#	c #FBF4B6",
"w#	c #EDE087",
"x#	c #E6CF76",
"y#	c #ECA42D",
"z#	c #E3991B",
"{#	c #D7881E",
"|#	c #D07918",
"}#	c #DF9323",
"~#	c #E6A130",
" $	c #CA7913",
"!$	c #DEA02E",
"#$	c #F2C654",
"$$	c #DFBA3C",
"%$	c #D78A18",
"&$	c #FED74C",
"'$	c #F6DD57",
"($	c #DE9017",
")$	c #F4C664",
"*$	c #FFE45B",
"+$	c #FFCB36",
",$	c #FFC21D",
"-$	c #FFB800",
".$	c #FCD87D",
"0$	c #FCFFFF",
"1$	c #FFF9C9",
"2$	c #FFEBB2",
"3$	c #FFE7A4",
"4$	c #FFFBB2",
"5$	c #E0BC5D",
"6$	c #E4B95B",
"7$	c #FDF59E",
"8$	c #FFD344",
"9$	c #FFCF36",
":$	c #FFF279",
";$	c #E2B85D",
"<$	c #DC870C",
"=$	c #D78C20",
">$	c #D68B26",
"?$	c #EBAA2E",
"@$	c #E6A025",
"A$	c #C87A16",
"B$	c #DE952A",
"C$	c #CA9A42",
"D$	c #F4C853",
"E$	c #E3B84A",
"F$	c #E18F16",
"G$	c #E6AD30",
"H$	c #DCAF3D",
"I$	c #DB912A",
"J$	c #F9D161",
"K$	c #FFD031",
"L$	c #FEBB16",
"M$	c #F8CC5A",
"N$	c #F1D178",
"O$	c #DBA018",
"P$	c #D5AB59",
"Q$	c #F5EFC0",
"R$	c #FFE57A",
"S$	c #F2DB7A",
"T$	c #D4AC4C",
"U$	c #FDE471",
"V$	c #FFD13D",
"W$	c #FFC939",
"X$	c #FBBC2B",
"Y$	c #FBC139",
"Z$	c #DFAE4D",
"[$	c #D98414",
"]$	c #D58B20",
"^$	c #D99124",
"_$	c #D88E21",
"`$	c #D4871A",
"a$	c #E49A1E",
"b$	c #DE9327",
"c$	c #BB802A",
"d$	c #F1DA7A",
"e$	c #D7AE51",
"f$	c #E58E0E",
"g$	c #E19820",
"h$	c #DB8410",
"i$	c #E0A245",
"j$	c #FCD057",
"k$	c #FFBB08",
"l$	c #F2CE71",
"m$	c #F3FCF8",
"n$	c #F9F8E5",
"o$	c #EBE7BB",
"p$	c #DBBC57",
"q$	c #CAA243",
"r$	c #DCC06C",
"s$	c #FDF17B",
"t$	c #DDB445",
"u$	c #EDC049",
"v$	c #FFD744",
"w$	c #FBBD2C",
"x$	c #F3B42C",
"y$	c #EAA628",
"z$	c #E39928",
"{$	c #E8B864",
"|$	c #DE9630",
"}$	c #CD7D17",
"~$	c #DB921B",
" %	c #EBA122",
"!%	c #E49F27",
"#%	c #F2AE27",
"$%	c #DA8C1A",
"%%	c #C68D3B",
"&%	c #F1E8B0",
"'%	c #CE9B44",
"(%	c #DC8C20",
")%	c #FFFFE6",
"*%	c #E6C389",
"+%	c #D88A2A",
",%	c #FFCE47",
"-%	c #EAAD19",
".%	c #E6E7CD",
"0%	c #FFF8B9",
"1%	c #FFE284",
"2%	c #FFE884",
"3%	c #FFF290",
"4%	c #F3DC6A",
"5%	c #D4A830",
"6%	c #D1B251",
"7%	c #DBB958",
"8%	c #FFD448",
"9%	c #F8AE20",
":%	c #E79F22",
";%	c #E2992A",
"<%	c #DD952E",
"=%	c #D58114",
">%	c #E3B35D",
"?%	c #DDA64E",
"@%	c #CE760A",
"A%	c #DE991F",
"B%	c #E9A72E",
"C%	c #DB922D",
"D%	c #E6A428",
"E%	c #EBA11C",
"F%	c #CF9841",
"G%	c #F1E9C7",
"H%	c #CE9A59",
"I%	c #D98515",
"J%	c #E8D7C0",
"K%	c #D8A462",
"L%	c #D98E2E",
"M%	c #F9BF37",
"N%	c #EDB73C",
"O%	c #FAF4BC",
"P%	c #FFE074",
"Q%	c #FFDB6A",
"R%	c #FFD658",
"S%	c #FFD045",
"T%	c #FFCE39",
"U%	c #FFE153",
"V%	c #D4AB44",
"W%	c #D7A542",
"X%	c #D39F3A",
"Y%	c #E3A845",
"Z%	c #E4A342",
"[%	c #DD9128",
"]%	c #D9881C",
"^%	c #E59C32",
"_%	c #E2C27D",
"`%	c #D79733",
"a%	c #D88715",
"b%	c #E5A323",
"c%	c #EEAC28",
"d%	c #D69223",
"e%	c #E8A823",
"f%	c #F7B425",
"g%	c #D1A446",
"h%	c #EFE1AF",
"i%	c #D7B57F",
"j%	c #D77800",
"k%	c #D07B0E",
"l%	c #CD6F05",
"m%	c #DB9B43",
"n%	c #F0B740",
"o%	c #EFA518",
"p%	c #F7D980",
"q%	c #FFDF64",
"r%	c #FFD145",
"s%	c #FFCE3F",
"t%	c #FCC432",
"u%	c #FFC02E",
"v%	c #E2AD40",
"w%	c #D49936",
"x%	c #F2AE3D",
"y%	c #D39436",
"z%	c #CA9440",
"{%	c #D29639",
"|%	c #DCAA53",
"}%	c #E5BD71",
"~%	c #E4CC8B",
" &	c #D6A74D",
"!&	c #EC9913",
"#&	c #DF9B28",
"$&	c #E5A820",
"%&	c #FFC32C",
"&&	c #F5B92C",
"'&	c #FDC229",
"(&	c #F8C330",
")&	c #CAA042",
"*&	c #E8C879",
"+&	c #E2C88D",
",&	c #C46101",
"-&	c #F5D16D",
".&	c #F4DF7E",
"0&	c #D28723",
"1&	c #EAAE44",
"2&	c #E7960A",
"3&	c #E3B347",
"4&	c #FFDC57",
"5&	c #FDC02A",
"6&	c #F1A51B",
"7&	c #ECB44B",
"8&	c #CA9742",
"9&	c #DF9E3C",
":&	c #DA8C22",
";&	c #E09630",
"<&	c #E5AC4F",
"=&	c #DDAD59",
">&	c #D7922C",
"?&	c #DDA644",
"@&	c #DDA53D",
"A&	c #EA9B14",
"B&	c #FFBC30",
"C&	c #E3A927",
"D&	c #E0AB28",
"E&	c #FFD041",
"F&	c #FDCC3E",
"G&	c #EFBC31",
"H&	c #FFDD43",
"I&	c #B68832",
"J&	c #D6A648",
"K&	c #E2CA7B",
"L&	c #C46C0E",
"M&	c #F0CA5A",
"N&	c #EED356",
"O&	c #D6830F",
"P&	c #E5A541",
"Q&	c #E09318",
"R&	c #E9B654",
"S&	c #FFE176",
"T&	c #F1A416",
"U&	c #E89619",
"V&	c #E9B256",
"W&	c #CE9B49",
"X&	c #D39435",
"Y&	c #E2A242",
"Z&	c #DC9631",
"[&	c #E2A443",
"]&	c #E7AB46",
"^&	c #F6D787",
"_&	c #FADA91",
"`&	c #EE9A0E",
"a&	c #F6AB1A",
"b&	c #FDBB32",
"c&	c #FDC635",
"d&	c #D4AA28",
"e&	c #F2C736",
"f&	c #F0C135",
"g&	c #E1AE29",
"h&	c #E8BB3A",
"i&	c #F8D447",
"j&	c #AD8841",
"k&	c #E8D45F",
"l&	c #D38F1E",
"m&	c #E08A12",
"n&	c #D78919",
"o&	c #E0941E",
"p&	c #E7A634",
"q&	c #E2A03B",
"r&	c #D9840F",
"s&	c #DDB05A",
"t&	c #E1B45D",
"u&	c #DEAF5D",
"v&	c #D5A656",
"w&	c #C87D19",
"x&	c #DEAA53",
"y&	c #E7A946",
"z&	c #E9B455",
"{&	c #EFC264",
"|&	c #F6CF74",
"}&	c #FCD46E",
"~&	c #FBF1B6",
" '	c #F1C458",
"!'	c #FEB71A",
"#'	c #FFD73C",
"$'	c #DDB82E",
"%'	c #D4AE32",
"&'	c #FFE959",
"''	c #EDCE53",
"('	c #EECD52",
")'	c #F9D250",
"*'	c #E5B139",
"+'	c #E1BE46",
",'	c #E3B42F",
"-'	c #DD8716",
".'	c #F4B02B",
"0'	c #F4BB36",
"1'	c #E69E1B",
"2'	c #E9AC3C",
"3'	c #D58723",
"4'	c #D47C08",
"5'	c #D18F32",
"6'	c #D09439",
"7'	c #D47801",
"8'	c #DA9C3E",
"9'	c #EACA7B",
":'	c #F1BC56",
";'	c #F6D176",
"<'	c #FDDC7D",
"='	c #FFE183",
">'	c #FFEF89",
"?'	c #F0E7B0",
"@'	c #E7BC43",
"A'	c #FFD430",
"B'	c #F7D93C",
"C'	c #BDA734",
"D'	c #F2D55B",
"E'	c #F4B63B",
"F'	c #ECB23C",
"G'	c #FCF490",
"H'	c #FFD65A",
"I'	c #C28729",
"J'	c #EAC03A",
"K'	c #DC9314",
"L'	c #F2B22F",
"M'	c #DD961C",
"N'	c #E7A31D",
"O'	c #FFC529",
"P'	c #E0A137",
"Q'	c #D27D1E",
"R'	c #DE8A19",
"S'	c #DD8B19",
"T'	c #DF8B0F",
"U'	c #E8A940",
"V'	c #FCEFBC",
"W'	c #FFE488",
"X'	c #FFEF9F",
"Y'	c #FBEEA9",
"Z'	c #EEEABC",
"['	c #D7C275",
"]'	c #FCD22D",
"^'	c #FEEB43",
"_'	c #B6A434",
"`'	c #E5DB7F",
"a'	c #FFF287",
"b'	c #CF7100",
"c'	c #D89332",
"d'	c #EDE7A3",
"e'	c #F0AC37",
"f'	c #DEB048",
"g'	c #E5A81E",
"h'	c #EFB023",
"i'	c #E8A523",
"j'	c #F1B52F",
"k'	c #F0B330",
"l'	c #F6C530",
"m'	c #D89A2C",
"n'	c #DB881B",
"o'	c #F0A226",
"p'	c #EFA92C",
"q'	c #F4A513",
"r'	c #EABF5A",
"s'	c #E9E6B2",
"t'	c #EBE4AB",
"u'	c #DECE81",
"v'	c #DEC761",
"w'	c #E6C861",
"x'	c #FDE23B",
"y'	c #F3E439",
"z'	c #B2A13B",
"{'	c #D4C275",
"|'	c #FFEA92",
"}'	c #F0DB94",
"~'	c #E7D28D",
" (	c #F1F0BD",
"!(	c #F9C76D",
"#(	c #C88124",
"$(	c #E5A438",
"%(	c #DFA116",
"&(	c #FFE339",
"'(	c #E29B2D",
"((	c #C16618",
")(	c #E6B02A",
"*(	c #FADD3D",
"+(	c #DDB034",
",(	c #DD9D1F",
"-(	c #F1B021",
".(	c #FFC62D",
"0(	c #FFC51A",
"1(	c #F2C73A",
"2(	c #F9D533",
"3(	c #FFE12A",
"4(	c #F9DF29",
"5(	c #D1C033",
"6(	c #B2A661",
"7(	c #E0E4B7",
"8(	c #FFF8AC",
"9(	c #D06900",
":(	c #D08721",
";(	c #FFFFFC",
"<(	c #F4E1B0",
"=(	c #DF8A1B",
">(	c #BE8E48",
"?(	c #E3992E",
"@(	c #E1B726",
"A(	c #F8CF40",
"B(	c #D09020",
"C(	c #EBC33D",
"D(	c #FFD14B",
"E(	c #F7D24E",
"F(	c #DDC74D",
"G(	c #D4BB4A",
"H(	c #DEBB3C",
"I(	c #DFBC30",
"J(	c #E9BE24",
"K(	c #EAC523",
"L(	c #DDC535",
"M(	c #D6C353",
"N(	c #C2B968",
"O(	c #CABD8F",
"P(	c #F6E4B5",
"Q(	c #FEEDBA",
"R(	c #EFE1BA",
"S(	c #D4973C",
"T(	c #DEB57A",
"U(	c #E9DED5",
"V(	c #F8B03F",
"W(	c #A87B3D",
"X(	c #CA9C59",
"Y(	c #DB891A",
"Z(	c #E3C33A",
"[(	c #FFF86F",
"](	c #F3D25E",
"^(	c #EEB01D",
"_(	c #E8AF26",
"`(	c #FFEA89",
"a(	c #FFF38B",
"b(	c #E9D885",
"c(	c #DDCC7A",
"d(	c #E2DB96",
"e(	c #E0D99B",
"f(	c #DACD99",
"g(	c #E3D4AC",
"h(	c #F8EFD4",
"i(	c #FFFFF1",
"j(	c #E2A342",
"k(	c #C96600",
"l(	c #F2E4B5",
"m(	c #EBE0D5",
"n(	c #F7B846",
"o(	c #A9752F",
"p(	c #C79A57",
"q(	c #EDB030",
"r(	c #EACC51",
"s(	c #F1E794",
"t(	c #EDD56A",
"u(	c #EBD06B",
"v(	c #F3DE8E",
"w(	c #F6A70E",
"x(	c #ECAE3A",
"y(	c #FEFACF",
"z(	c #F8D483",
"{(	c #F5CF86",
"|(	c #FFFFE9",
"}(	c #E9B262",
"~(	c #D8831B",
" )	c #EBE0CB",
"!)	c #E7C57E",
"#)	c #DCAB4E",
"$)	c #F2EBE1",
"%)	c #F4DFB5",
"&)	c #F9C440",
"')	c #A37633",
"()	c #AF8A54",
"))	c #E4BC35",
"*)	c #F1D84B",
"+)	c #EAE09F",
",)	c #F8FFE1",
"-)	c #F8F6C9",
".)	c #DFA03F",
"0)	c #E1B56A",
"1)	c #F8F1D6",
"2)	c #CF6F04",
"3)	c #C66100",
"4)	c #F0E9E0",
"5)	c #E1B162",
"6)	c #CA7B0B",
"7)	c #F6EFD8",
"8)	c #FEFFFF",
"9)	c #EDE9DF",
":)	c #F6D579",
";)	c #DDA621",
"<)	c #B1935C",
"=)	c #CEB245",
">)	c #E7C636",
"?)	c #F5CE5F",
"@)	c #F5DEA0",
"A)	c #EFEBD9",
"B)	c #F7FFFF",
"C)	c #FFFFF9",
"D)	c #E8D7C5",
"E)	c #E1CEBC",
"F)	c #F6F8ED",
"G)	c #EBE3D4",
"H)	c #F2DAA6",
"I)	c #F4D47C",
"J)	c #E9BD45",
"K)	c #CAA23A",
"L)	c #C19229",
"M)	c #D8971E",
"N)	c #E9AC41",
"O)	c #F1B75E",
"P)	c #EBB868",
"Q)	c #F0CF8D",
"R)	c #F4D693",
"S)	c #EEC46D",
"T)	c #F6CD72",
"U)	c #ECC55D",
"V)	c #D7A532",
"W)	c #B98C2E",
"X)	c #A26519",
"Y)	c #B26F17",
"Z)	c #BE7C1C",
"[)	c #C08221",
"])	c #B47B21",
"^)	c #A26E23",
"                        # $ % & ' ( ) *                         ",
"                  + , - . 0 1 2 3 4 5 6 7 8 9                   ",
"              : ; < = > ? @ A B C D E F G H I J K               ",
"            L M N O P Q R S T U V W X Y Z [ ] ^ _ `             ",
"          a b c d e f g h i j k l m n o p q r s t u v           ",
"        w x y z { | } ~  !!!#!$!%!&!'!(!)!*!+!,!-!.!0!1!        ",
"      2!3!4!5!6!7!8!9!:!;!<!=!>!?!@!A!B!C!D!E!F!G!H!I!J!K!      ",
"      L!M!N!O!P!Q!R!S!T!U!V!W!X!Y!Z![!]!^!_!`!a!b!c!d!e!f!      ",
"    g!h!i!j!k!l!m!n!o!p!q!r!s!t!u!v!w!x!y!z!{!|!}!~! #!###$#    ",
"  %#&#'#(#)#*#+#,#-#.#0#1#2#3#4#5#6#7#8#9#:#;#<#=#>#?#@#A#B#C#  ",
"  D#E#F#G#H#I#J#K#L#M#N#O#P#Q#R#S#T#U#V#W#X#Y#Z#[#]#^#_#`#a#b#  ",
"  c#d#e#f#g#h#i#j#k#l#m#n#o#p#q#r#s#t#u#v#w#x#y#z#{#|#}#~# $!$  ",
"#$$$%$&$'$($)$*$+$,$-$.$0$1$2$3$4$5$6$7$8$9$:$;$<$=$>$?$@$A$B$C$",
"D$E$F$G$H$I$J$K$L$M$N$O$P$Q$=!R$S$T$U$V$W$X$Y$Z$[$]$^$_$`$a$b$c$",
"d$e$f$g$h$i$j$k$l$m$n$o$p$q$r$s$t$u$v$w$x$y$z${$|$}$~$ %!%#%$%%%",
"&%'%(%)%*%+%,%-%.%0%1%2%3%4%5%6%7%8%9%:%;%<%=%>%?%@%A%B%C%D%E%F%",
"G%H%I%J%K%L%M%N%O%P%Q%R%S%T%U%V%W%X%Y%Z%[%]%^%_%`%a%b%c%d%e%f%g%",
"h%i%j%k%l%m%n%o%p%q%r%s%t%u%v%w%x%y%z%{%|%}%~% &!&#&$&%&&&'&(&)&",
"*&+&,&-&.&0&1&2&3&4&5&{!6&7&8&9&:&;&<&=&>&?&@&A&B&C&D&E&F&G&H&I&",
"J&K&L&M&N&O&P&Q&R&S&T&U&V&W&X&Y&Z&[&]&^&_&`&a&b&c&d&e&f&g&h&i&j&",
"  k&l&m&n&o&p&q&r&s&t&u&v&w&x&y&z&{&|&}&~& '!'#'$'%'&'''(')'*'  ",
"  +','-'.'0'1'2'3'4'5'6'7'8'9':';'<'='>'?'@'A'B'C'D'E'F'G'H'I'  ",
"    J'K'L'M'N'O'P'Q'R'S'T'U'V'W'2%X'Y'Z'[']'^'_'`'a'b'c'd'e'    ",
"    f'g'h'i'j'k'l'm'n'o'p'q'r's't'u'v'w'x'y'z'{'|'}'~' (!(#(    ",
"      $(%(&('((()(*(+(,(-(.(0(1(''2(3(4(5(6(7(8(9(:(;(<(=(      ",
"      >(?(@(A(B(C(D(E(F(G(H(I(J(K(L(M(N(O(P(Q(R(S(T(U(V(W(      ",
"        X(Y(Z([(](^(_(`(a(b(c(d(e(f(g(h(i(j(k(l(6#m(n(o(        ",
"          p(q(r(s(t(u(v(w(x(y(z({(|(}(~( )!)#)$)%)&)')          ",
"            ()))*)+),)-).)0)1)2)3)4)5)6)7)8)9):);)<)            ",
"                =)>)?)@)A)B)C)D)E)6#F)G)H)I)J)K)                ",
"                    L)M)N)O)P)Q)R)S)T)U)V)W)                    ",
"                          X)Y)Z)[)])^)                          "};